# xmcd CD database file
#
# Track frame offsets:
#	150
#	20987
#	34614
#	53536
#	76093
#	91705
#	123812
#	139539
#	170251
#	188648
#	219795
#	238537
#	253494
#	287316
#	305458
#
# Disc length: 4392 seconds
#
# Revision: 0
# Processed by: cddbd v1.5.1PL2 Copyright (c) Steve Scherf et al.
# Submitted via: CDex 1.51
#
DISCID=b511260f
DTITLE=Johnny Hartman - The Tokyo Albums
DYEAR=1972
DGENRE=Jazz
TTITLE0=Greensleeves
TTITLE1=On A Clear Day
TTITLE2=My Favorite Things
TTITLE3=Violets For Your Furs
TTITLE4=Nature Boy
TTITLE5=Summertime
TTITLE6=Why Did I Choose You
TTITLE7=Shadow Of Your Smile
TTITLE8=Fly Me To The Moon
TTITLE9=The Nearness Of You
TTITLE10=I´m Glad There Is You
TTITLE11=On Green Dolphin Street
TTITLE12=My Funny Valentine
TTITLE13=Sometimes I´m Happy
TTITLE14=S´posin´
EXTD=YEAR: 1972
EXTT0=
EXTT1=
EXTT2=
EXTT3=
EXTT4=
EXTT5=
EXTT6=
EXTT7=
EXTT8=
EXTT9=
EXTT10=
EXTT11=
EXTT12=
EXTT13=
EXTT14=
PLAYORDER=
